<svg width="30" height="30" viewBox="0 0 30 30" fill="none" xmlns="http://www.w3.org/2000/svg">
<path d="M14.9025 16.7293C18.7399 16.7838 21.8769 13.6523 21.8696 9.8458C21.8625 6.07992 18.7805 3 14.9976 3C11.2307 3 8.1489 6.07337 8.13528 9.82878C8.12402 13.6355 11.2018 16.6769 14.9025 16.7293ZM15.056 5.11369C17.6598 5.13989 19.7444 7.24101 19.7512 9.85863C19.7591 12.4828 17.6223 14.6151 14.996 14.6146C12.3823 14.6146 10.2466 12.4729 10.2534 9.85785C10.2602 7.25594 12.3564 5.0875 15.056 5.11369Z" fill="#414141"/>
<path d="M26.9953 24.5133C26.9931 24.2298 26.9736 23.9466 26.9369 23.6655C26.7238 22.1237 25.9592 20.7114 24.7847 19.6901C23.6102 18.6689 22.1053 18.1079 20.5489 18.1112H15.0101C13.1638 18.1112 11.317 18.1044 9.47128 18.113C7.61873 18.1217 6.04014 18.794 4.76276 20.1369C3.72503 21.2286 3.13597 22.5376 3.03592 24.0418C2.98563 24.7983 2.99821 25.561 3.01366 26.319C3.02806 27.0233 3.79942 27.4958 4.45657 27.2271C4.8691 27.0581 5.12159 26.6796 5.12421 26.2221C5.12813 25.55 5.09042 24.875 5.14149 24.2053C5.3141 21.9418 7.18813 20.228 9.46317 20.2265C13.1557 20.2235 16.8482 20.2245 20.5408 20.2296C20.8417 20.2301 21.1418 20.2601 21.4368 20.3192C23.3902 20.7121 24.8392 22.442 24.879 24.4263C24.891 25.0288 24.879 25.6312 24.8818 26.2336C24.8858 26.8407 25.3564 27.3046 25.9557 27.3001C26.5385 27.2957 26.9961 26.8247 26.9963 26.2281C26.9982 25.6568 27.0042 25.0848 26.9953 24.5133Z" fill="#414141"/>
</svg>
